  0
SECTION
  2
HEADER
  9
$ACADVER
  1
AC1009
  9
$INSBASE
 10
0.0
 20
0.0
 30
0.0
  9
$EXTMIN
 10
0.0
 20
0.0
 30
0.0
  9
$EXTMAX
 10
0.0
 20
0.0
 30
0.0
  0
ENDSEC
  0
SECTION
  2
TABLES
  0
TABLE
  2
VPORT
 70
0
  0
ENDTAB
  0
TABLE
  2
LTYPE
 70
1
  0
LTYPE
  2
CONTINUOUS
 70
0
  3
Solid line
 72
65
 73
0
 40
0.0
  0
ENDTAB
  0
TABLE
  2
LAYER
 70
1
  0
LAYER
  2
0
 70
64
 62
7
  6
continuous
  0
ENDTAB
  0
TABLE
  2
STYLE
 70
1
  0
STYLE
  2
STANDARD
 70
0
 40
0
 41
1.0
 50
0.0
 71
0
 42
1
 3
ARIAL.TTF
 4

  0
ENDTAB
  0
TABLE
  2
VIEW
 70
0
  0
ENDTAB
  0
ENDSEC
  0
SECTION
  2
BLOCKS
  0
ENDSEC
  0
SECTION
  2
ENTITIES
  0
LINE
  8
Furniture
 62
0
 10
-298.161923392
 20
650.0
 30
0.0
 11
1.49885913358
 21
650.0
 31
0.0
  0
LINE
  8
Furniture
 62
0
 10
-298.161923392
 20
600.0
 30
0.0
 11
1.49885913358
 21
600.0
 31
0.0
  0
LINE
  8
Furniture
 62
0
 10
-560.329056517
 20
730.67398442
 30
0.0
 11
-560.329056517
 21
725.031169198
 31
0.0
  0
LINE
  8
Furniture
 62
0
 10
-298.161923392
 20
450.0
 30
0.0
 11
1.49885913358
 21
450.0
 31
0.0
  0
LINE
  8
Furniture
 62
0
 10
-298.161923392
 20
500.0
 30
0.0
 11
1.49885913358
 21
500.0
 31
0.0
  0
LINE
  8
Furniture
 62
0
 10
-298.161923392
 20
550.0
 30
0.0
 11
1.49885913358
 21
550.0
 31
0.0
  0
LINE
  8
Furniture
 62
0
 10
-540.329056517
 20
730.67398442
 30
0.0
 11
-540.329056517
 21
615.399330605
 31
0.0
  0
LINE
  8
Furniture
 62
0
 10
-540.329056517
 20
730.67398442
 30
0.0
 11
-560.329056517
 21
730.67398442
 31
0.0
  0
LINE
  8
Furniture
 62
0
 10
-298.161923392
 20
400.0
 30
0.0
 11
1.49885913358
 21
400.0
 31
0.0
  0
LINE
  8
Furniture
 62
0
 10
-540.140168377
 20
700.0
 30
0.0
 11
-400.0
 21
700.0
 31
0.0
  0
CIRCLE
  8
Furniture
 62
0
 10
336.74
 20
706.08
 30
-9.99999999996e-17
 40
91.28
  0
LINE
  8
Furniture
 62
0
 10
-560.329056517
 20
725.031169198
 30
0.0
 11
-560.329056517
 21
615.399330605
 31
0.0
  0
CIRCLE
  8
Furniture
 62
0
 10
-549.94619976
 20
528.338752899
 30
0.0
 40
25.0
  0
LINE
  8
Furniture
 62
0
 10
-560.329056517
 20
615.399330605
 30
0.0
 11
-540.329056517
 21
615.399330605
 31
0.0
  0
LINE
  8
Furniture
 62
0
 10
336.74
 20
787.36
 30
0.0
 11
336.74
 21
746.72
 31
0.0
  0
LINE
  8
Furniture
 62
0
 10
700.0
 20
850.0
 30
0.0
 11
200.0
 21
850.0
 31
0.0
  0
LINE
  8
Furniture
 62
0
 10
303.805636238
 20
291.534014483
 30
0.0
 11
282.592432802
 21
270.320811047
 31
0.0
  0
LINE
  8
Furniture
 62
0
 10
276.935578553
 20
275.977665297
 30
0.0
 11
298.148781988
 21
297.190868732
 31
0.0
  0
LINE
  8
Furniture
 62
0
 10
336.74
 20
624.8
 30
0.0
 11
336.74
 21
665.44
 31
0.0
  0
LINE
  8
Furniture
 62
0
 10
298.148781988
 20
297.190868732
 30
0.0
 11
303.805636238
 21
291.534014483
 31
0.0
  0
LINE
  8
Furniture
 62
0
 10
521.17821924
 20
298.75583989
 30
0.0
 11
542.391422676
 21
277.542636454
 31
0.0
  0
CIRCLE
  8
Furniture
 62
0
 10
336.74
 20
455.38
 30
-9.99999999996e-17
 40
75.024
  0
CIRCLE
  8
Furniture
 62
0
 10
291.273654034
 20
284.331218687
 30
-9.99999999996e-17
 40
20.5548047911
  0
LINE
  8
Furniture
 62
0
 10
580.58
 20
791.424
 30
0.0
 11
580.58
 21
758.912
 31
0.0
  0
LINE
  8
Furniture
 62
0
 10
580.58
 20
661.376
 30
0.0
 11
580.58
 21
693.888
 31
0.0
  0
LINE
  8
Furniture
 62
0
 10
542.391422676
 20
277.542636454
 30
0.0
 11
536.734568426
 21
271.885782205
 31
0.0
  0
LINE
  8
Furniture
 62
0
 10
282.592432802
 20
270.320811047
 30
0.0
 11
276.935578553
 21
275.977665297
 31
0.0
  0
LINE
  8
Furniture
 62
0
 10
645.604
 20
726.4
 30
0.0
 11
613.092
 21
726.4
 31
0.0
  0
LINE
  8
Furniture
 62
0
 10
418.02
 20
706.08
 30
0.0
 11
377.38
 21
706.08
 31
0.0
  0
LINE
  8
Furniture
 62
0
 10
255.46
 20
706.08
 30
0.0
 11
296.1
 21
706.08
 31
0.0
  0
LINE
  8
Furniture
 62
0
 10
515.556
 20
726.4
 30
0.0
 11
548.068
 21
726.4
 31
0.0
  0
CIRCLE
  8
Furniture
 62
0
 10
580.58
 20
726.4
 30
-9.99999999996e-17
 40
65.024
  0
CIRCLE
  8
Furniture
 62
0
 10
336.74
 20
706.08
 30
-9.99999999996e-17
 40
81.28
  0
CIRCLE
  8
Furniture
 62
0
 10
382.381015035
 20
284.331218687
 30
-9.99999999996e-17
 40
20.5548047911
  0
CIRCLE
  8
Furniture
 62
0
 10
528.773654034
 20
284.331218687
 30
-9.99999999996e-17
 40
20.5548047911
  0
CIRCLE
  8
Furniture
 62
0
 10
619.881015035
 20
284.331218687
 30
-9.99999999996e-17
 40
20.5548047911
  0
LINE
  8
Furniture
 62
0
 10
336.74
 20
390.356
 30
0.0
 11
336.74
 21
422.868
 31
0.0
  0
LINE
  8
Furniture
 62
0
 10
336.74
 20
520.404
 30
0.0
 11
336.74
 21
487.892
 31
0.0
  0
LINE
  8
Furniture
 62
0
 10
700.0
 20
250.0
 30
0.0
 11
200.0
 21
250.0
 31
0.0
  0
LINE
  8
Furniture
 62
0
 10
628.148781988
 20
298.190868732
 30
0.0
 11
633.805636238
 21
292.534014483
 31
0.0
  0
LINE
  8
Furniture
 62
0
 10
394.891422676
 20
277.542636454
 30
0.0
 11
389.234568426
 21
271.885782205
 31
0.0
  0
LINE
  8
Furniture
 62
0
 10
368.02136499
 20
293.09898564
 30
0.0
 11
373.67821924
 21
298.75583989
 31
0.0
  0
LINE
  8
Furniture
 62
0
 10
606.935578553
 20
276.977665297
 30
0.0
 11
628.148781988
 21
298.190868732
 31
0.0
  0
LINE
  8
Furniture
 62
0
 10
499.3
 20
475.7
 30
0.0
 11
539.94
 21
475.7
 31
0.0
  0
LINE
  8
Furniture
 62
0
 10
580.58
 20
394.42
 30
0.0
 11
580.58
 21
435.06
 31
0.0
  0
LINE
  8
Furniture
 62
0
 10
212.32
 20
250.0
 30
0.0
 11
700.0
 21
250.0
 31
0.0
  0
LINE
  8
Furniture
 62
0
 10
661.86
 20
475.7
 30
0.0
 11
621.22
 21
475.7
 31
0.0
  0
LINE
  8
Furniture
 62
0
 10
700.0
 20
250.0
 30
0.0
 11
200.0
 21
250.0
 31
0.0
  0
LINE
  8
Furniture
 62
0
 10
612.592432802
 20
271.320811047
 30
0.0
 11
606.935578553
 21
276.977665297
 31
0.0
  0
LINE
  8
Furniture
 62
0
 10
633.805636238
 20
292.534014483
 30
0.0
 11
612.592432802
 21
271.320811047
 31
0.0
  0
LINE
  8
Furniture
 62
0
 10
515.52136499
 20
293.09898564
 30
0.0
 11
521.17821924
 21
298.75583989
 31
0.0
  0
LINE
  8
Furniture
 62
0
 10
271.716
 20
455.38
 30
0.0
 11
304.228
 21
455.38
 31
0.0
  0
LINE
  8
Furniture
 62
0
 10
401.764
 20
455.38
 30
0.0
 11
369.252
 21
455.38
 31
0.0
  0
LINE
  8
Furniture
 62
0
 10
389.234568426
 20
271.885782205
 30
0.0
 11
368.02136499
 21
293.09898564
 31
0.0
  0
LINE
  8
Furniture
 62
0
 10
200.0
 20
329.64
 30
0.0
 11
700.0
 21
329.64
 31
0.0
  0
CIRCLE
  8
Furniture
 62
0
 10
336.74
 20
455.38
 30
-9.99999999996e-17
 40
65.024
  0
LINE
  8
Furniture
 62
0
 10
373.67821924
 20
298.75583989
 30
0.0
 11
394.891422676
 21
277.542636454
 31
0.0
  0
POLYLINE
  8
Walls
 62
7
 70
1
 66
1
 10
0.0
 20
0.0
 30
0.0
  0
VERTEX
  8
Walls
 10
700.021057129
 20
-850.0
 30
0.0
  0
VERTEX
  8
Walls
 10
850.0
 20
-850.0
 30
0.0
  0
VERTEX
  8
Walls
 10
850.0
 20
850.0
 30
0.0
  0
VERTEX
  8
Walls
 10
450.016601561
 20
850.0
 30
0.0
  0
VERTEX
  8
Walls
 10
450.016601561
 20
1000.0
 30
0.0
  0
VERTEX
  8
Walls
 10
1000.0
 20
1000.0
 30
0.0
  0
VERTEX
  8
Walls
 10
1000.0
 20
-1000.0
 30
0.0
  0
VERTEX
  8
Walls
 10
700.021057129
 20
-1000.0
 30
0.0
  0
SEQEND
  8
Walls
  0
POLYLINE
  8
Construction
 62
150
 70
0
 66
1
 10
0.0
 20
0.0
 30
0.0
  0
VERTEX
  8
Construction
 10
850.0
 20
-2000.0
 30
0.0
  0
VERTEX
  8
Construction
 10
850.0
 20
2.27e-13
 30
0.0
  0
SEQEND
  8
Construction
  0
ARC
  8
Doors & Windows
 62
7
 10
700.021057129
 20
-925.0
 30
0.0
 40
800.023864746
 50
90.0
 51
180.0
  0
POLYLINE
  8
Furniture
 62
7
 70
1
 66
1
 10
0.0
 20
0.0
 30
0.0
  0
VERTEX
  8
Furniture
 10
-850.0
 20
250.002868652
 30
0.0
  0
VERTEX
  8
Furniture
 10
850.0
 20
250.002868652
 30
0.0
  0
VERTEX
  8
Furniture
 10
850.0
 20
850.0
 30
0.0
  0
VERTEX
  8
Furniture
 10
-850.0
 20
850.0
 30
0.0
  0
SEQEND
  8
Furniture
  0
POLYLINE
  8
Construction
 62
150
 70
0
 66
1
 10
0.0
 20
0.0
 30
0.0
  0
VERTEX
  8
Construction
 10
-100.002807617
 20
-2000.0
 30
0.0
  0
VERTEX
  8
Construction
 10
-100.002807617
 20
2.27e-13
 30
0.0
  0
SEQEND
  8
Construction
  0
POLYLINE
  8
Doors & Windows
 62
7
 70
0
 66
1
 10
0.0
 20
0.0
 30
0.0
  0
VERTEX
  8
Doors & Windows
 10
700.021057129
 20
-124.976135254
 30
0.0
  0
VERTEX
  8
Doors & Windows
 10
700.021057129
 20
-925.0
 30
0.0
  0
SEQEND
  8
Doors & Windows
  0
POLYLINE
  8
Walls
 62
7
 70
1
 66
1
 10
0.0
 20
0.0
 30
0.0
  0
VERTEX
  8
Walls
 10
-100.002807617
 20
-1000.0
 30
0.0
  0
VERTEX
  8
Walls
 10
-1000.0
 20
-1000.0
 30
0.0
  0
VERTEX
  8
Walls
 10
-1000.0
 20
1000.0
 30
0.0
  0
VERTEX
  8
Walls
 10
-749.954650879
 20
1000.0
 30
0.0
  0
VERTEX
  8
Walls
 10
-749.954650879
 20
850.0
 30
0.0
  0
VERTEX
  8
Walls
 10
-850.0
 20
850.0
 30
0.0
  0
VERTEX
  8
Walls
 10
-850.0
 20
-850.0
 30
0.0
  0
VERTEX
  8
Walls
 10
-100.002807617
 20
-850.0
 30
0.0
  0
SEQEND
  8
Walls
  0
POLYLINE
  8
Construction
 62
150
 70
0
 66
1
 10
0.0
 20
0.0
 30
0.0
  0
VERTEX
  8
Construction
 10
-749.954650879
 20
0.0
 30
0.0
  0
VERTEX
  8
Construction
 10
-749.954650879
 20
2000.0
 30
0.0
  0
SEQEND
  8
Construction
  0
POLYLINE
  8
Doors & Windows
 62
7
 70
0
 66
1
 10
0.0
 20
0.0
 30
0.0
  0
VERTEX
  8
Doors & Windows
 10
-749.954650879
 20
925.0
 30
0.0
  0
VERTEX
  8
Doors & Windows
 10
450.016601561
 20
925.0
 30
0.0
  0
SEQEND
  8
Doors & Windows
  0
POLYLINE
  8
Doors & Windows
 62
7
 70
0
 66
1
 10
0.0
 20
0.0
 30
0.0
  0
VERTEX
  8
Doors & Windows
 10
-100.002807617
 20
-850.0
 30
0.0
  0
VERTEX
  8
Doors & Windows
 10
700.021057129
 20
-850.0
 30
0.0
  0
SEQEND
  8
Doors & Windows
  0
POLYLINE
  8
Construction
 62
150
 70
1
 66
1
 10
0.0
 20
0.0
 30
0.0
  0
VERTEX
  8
Construction
 10
-1000.0
 20
-1000.0
 30
0.0
  0
VERTEX
  8
Construction
 10
1000.0
 20
-1000.0
 30
0.0
  0
VERTEX
  8
Construction
 10
1000.0
 20
1000.0
 30
0.0
  0
VERTEX
  8
Construction
 10
-1000.0
 20
1000.0
 30
0.0
  0
SEQEND
  8
Construction
  0
POLYLINE
  8
Construction
 62
150
 70
0
 66
1
 10
0.0
 20
0.0
 30
0.0
  0
VERTEX
  8
Construction
 10
700.021057129
 20
-2000.0
 30
0.0
  0
VERTEX
  8
Construction
 10
700.021057129
 20
2.27e-13
 30
0.0
  0
SEQEND
  8
Construction
  0
POLYLINE
  8
Doors & Windows
 62
7
 70
0
 66
1
 10
0.0
 20
0.0
 30
0.0
  0
VERTEX
  8
Doors & Windows
 10
-749.954650879
 20
1000.0
 30
0.0
  0
VERTEX
  8
Doors & Windows
 10
450.016601561
 20
1000.0
 30
0.0
  0
SEQEND
  8
Doors & Windows
  0
POLYLINE
  8
Doors & Windows
 62
7
 70
0
 66
1
 10
0.0
 20
0.0
 30
0.0
  0
VERTEX
  8
Doors & Windows
 10
-749.954650879
 20
850.0
 30
0.0
  0
VERTEX
  8
Doors & Windows
 10
450.016601561
 20
850.0
 30
0.0
  0
SEQEND
  8
Doors & Windows
  0
POLYLINE
  8
Construction
 62
150
 70
1
 66
1
 10
0.0
 20
0.0
 30
0.0
  0
VERTEX
  8
Construction
 10
-850.0
 20
-850.0
 30
0.0
  0
VERTEX
  8
Construction
 10
850.0
 20
-850.0
 30
0.0
  0
VERTEX
  8
Construction
 10
850.0
 20
850.0
 30
0.0
  0
VERTEX
  8
Construction
 10
-850.0
 20
850.0
 30
0.0
  0
SEQEND
  8
Construction
  0
POLYLINE
  8
Construction
 62
150
 70
0
 66
1
 10
0.0
 20
0.0
 30
0.0
  0
VERTEX
  8
Construction
 10
-850.0
 20
0.0
 30
0.0
  0
VERTEX
  8
Construction
 10
-850.0
 20
2000.0
 30
0.0
  0
SEQEND
  8
Construction
  0
POLYLINE
  8
Construction
 62
150
 70
0
 66
1
 10
0.0
 20
0.0
 30
0.0
  0
VERTEX
  8
Construction
 10
450.016601561
 20
1.14e-13
 30
0.0
  0
VERTEX
  8
Construction
 10
450.016601561
 20
2000.0
 30
0.0
  0
SEQEND
  8
Construction
  0
POLYLINE
  8
Doors & Windows
 62
7
 70
0
 66
1
 10
0.0
 20
0.0
 30
0.0
  0
VERTEX
  8
Doors & Windows
 10
-100.002807617
 20
-1000.0
 30
0.0
  0
VERTEX
  8
Doors & Windows
 10
700.021057129
 20
-1000.0
 30
0.0
  0
SEQEND
  8
Doors & Windows
  0
LINE
  8
Furniture
 62
0
 10
-400.0
 20
350.0
 30
0.0
 11
-700.0
 21
350.0
 31
0.0
  0
LINE
  8
Furniture
 62
0
 10
-298.161923392
 20
700.0
 30
0.0
 11
1.49885913358
 21
700.0
 31
0.0
  0
LINE
  8
Furniture
 62
0
 10
1.49885913358
 20
350.0
 30
0.0
 11
-298.161923392
 21
350.0
 31
0.0
  0
LINE
  8
Furniture
 62
0
 10
-800.0
 20
300.0
 30
0.0
 11
-800.0
 21
800.0
 31
0.0
  0
ARC
  8
Furniture
 62
0
 10
-700.0
 20
650.0
 30
0.0
 40
50.0
 50
90.0
 51
-180.0
  0
LINE
  8
Furniture
 62
0
 10
-800.0
 20
750.0
 30
0.0
 11
50.0
 21
750.0
 31
0.0
  0
LINE
  8
Furniture
 62
0
 10
50.0
 20
800.0
 30
0.0
 11
50.0
 21
300.0
 31
0.0
  0
CIRCLE
  8
Furniture
 62
0
 10
580.58
 20
475.7
 30
-9.99999999996e-17
 40
91.28
  0
CIRCLE
  8
Furniture
 62
0
 10
580.58
 20
475.7
 30
-9.99999999996e-17
 40
81.28
  0
LINE
  8
Furniture
 62
0
 10
536.734568426
 20
271.885782205
 30
0.0
 11
515.52136499
 21
293.09898564
 31
0.0
  0
LINE
  8
Furniture
 62
0
 10
-350.0
 20
400.0
 30
0.0
 11
-350.0
 21
650.0
 31
0.0
  0
LINE
  8
Furniture
 62
0
 10
200.0
 20
250.0
 30
0.0
 11
200.0
 21
850.0
 31
0.0
  0
ARC
  8
Furniture
 62
0
 10
-400.0
 20
400.0
 30
0.0
 40
50.0
 50
-90.0
 51
-0.0
  0
LINE
  8
Furniture
 62
0
 10
700.0
 20
250.0
 30
0.0
 11
700.0
 21
850.0
 31
0.0
  0
ARC
  8
Furniture
 62
0
 10
-400.0
 20
650.0
 30
0.0
 40
50.0
 50
-0.0
 51
90.0
  0
LINE
  8
Furniture
 62
0
 10
50.0
 20
300.0
 30
0.0
 11
-800.0
 21
300.0
 31
0.0
  0
ARC
  8
Furniture
 62
0
 10
-700.0
 20
400.0
 30
0.0
 40
50.0
 50
-180.0
 51
-90.0
  0
LINE
  8
Furniture
 62
0
 10
-800.0
 20
800.0
 30
0.0
 11
50.0
 21
800.0
 31
0.0
  0
LINE
  8
Furniture
 62
0
 10
200.0
 20
250.0
 30
0.0
 11
200.0
 21
850.0
 31
0.0
  0
CIRCLE
  8
Furniture
 62
0
 10
580.58
 20
726.4
 30
-9.99999999996e-17
 40
75.024
  0
LINE
  8
Furniture
 62
0
 10
-700.0
 20
700.0
 30
0.0
 11
-560.040643829
 21
700.0
 31
0.0
  0
LINE
  8
Furniture
 62
0
 10
580.58
 20
556.98
 30
0.0
 11
580.58
 21
516.34
 31
0.0
  0
LINE
  8
Furniture
 62
0
 10
-750.0
 20
400.0
 30
0.0
 11
-750.0
 21
650.0
 31
0.0
  0
DIMENSION
  8
Annotations
 62
7
 3
Standard
 70
1
 10
700.021057129
 20
-1500.0
 30
0.0
 13
-100.002807617
 23
-1000.0
 33
0.0
 14
700.021057129
 24
-1000.0
 34
0.0
  0
DIMENSION
  8
Annotations
 62
7
 3
Standard
 70
1
 10
-499.813285384
 20
1000.0
 30
0.0
 13
-499.813285384
 23
850.000387336
 33
0.0
 14
-499.813285384
 24
1000.0
 34
0.0
  0
DIMENSION
  8
Annotations
 62
7
 3
Standard
 70
1
 10
450.016601561
 20
1300.0
 30
0.0
 13
-749.954650879
 23
1000.0
 33
0.0
 14
450.016601561
 24
1000.0
 34
0.0
  0
DIMENSION
  8
Annotations
 62
7
 3
Standard
 70
1
 10
1000.0
 20
-1500.0
 30
0.0
 13
700.021057129
 23
-1000.0
 33
0.0
 14
1000.0
 24
-1000.0
 34
0.0
  0
DIMENSION
  8
Annotations
 62
7
 3
Standard
 70
1
 10
-499.813285384
 20
850.000387336
 30
0.0
 13
-484.543
 23
-850.0
 33
0.0
 14
-484.5
 24
850.0
 34
0.0
  0
DIMENSION
  8
Annotations
 62
7
 3
Standard
 70
1
 10
1000.0
 20
1300.0
 30
0.0
 13
450.016601561
 23
1000.0
 33
0.0
 14
1000.0
 24
1000.0
 34
0.0
  0
DIMENSION
  8
Annotations
 62
7
 3
Standard
 70
1
 10
-499.856285384
 20
-850.0
 30
0.0
 13
-499.856
 23
-1000.0
 33
0.0
 14
-499.856
 24
-850.0
 34
0.0
  0
DIMENSION
  8
Annotations
 62
7
 3
Standard
 70
1
 10
-100.002807617
 20
-1500.0
 30
0.0
 13
-1000.0
 23
-1000.0
 33
0.0
 14
-100.002807617
 24
-1000.0
 34
0.0
  0
DIMENSION
  8
Annotations
 62
7
 3
Standard
 70
1
 10
850.0
 20
-444.795806885
 30
0.0
 13
-850.0
 23
-444.795806885
 33
0.0
 14
850.0
 24
-444.795806885
 34
0.0
  0
DIMENSION
  8
Annotations
 62
7
 3
Standard
 70
1
 10
-850.0
 20
-444.795806885
 30
0.0
 13
-1000.0
 23
-601.319152832
 33
0.0
 14
-850.0
 24
-601.319152832
 34
0.0
  0
DIMENSION
  8
Annotations
 62
7
 3
Standard
 70
1
 10
-1351.01745605
 20
1000.0
 30
0.0
 13
-1000.0
 23
-1000.0
 33
0.0
 14
-1000.0
 24
1000.0
 34
0.0
  0
DIMENSION
  8
Annotations
 62
7
 3
Standard
 70
1
 10
-749.954650879
 20
1300.0
 30
0.0
 13
-1000.0
 23
1000.0
 33
0.0
 14
-749.954650879
 24
1000.0
 34
0.0
  0
DIMENSION
  8
Annotations
 62
7
 3
Standard
 70
1
 10
1000.0
 20
-444.795806885
 30
0.0
 13
850.0
 23
-444.795806885
 33
0.0
 14
1000.0
 24
-444.795806885
 34
0.0
  0
ENDSEC
  0
EOF
